<svg viewBox="0 0 24 24" xmlns="http://www.w3.org/2000/svg"><path d="m0 0h24v24h-24z" fill="#fff" opacity="0" transform="matrix(-1 0 0 -1 24 24)"/><path d="m22 12a10 10 0 0 0 -10-10 10 10 0 0 0 0 20 10 10 0 0 0 10-10zm-2.07-1h-2.93a12.91 12.91 0 0 0 -2.33-6.54 8 8 0 0 1 5.26 6.54zm-10.85 2h5.92a11.44 11.44 0 0 1 -3 6.61 11 11 0 0 1 -2.92-6.61zm0-2a11.4 11.4 0 0 1 2.92-6.6 11.19 11.19 0 0 1 3 6.6zm.36-6.57a13.18 13.18 0 0 0 -2.37 6.57h-3a8 8 0 0 1 5.37-6.57zm-5.37 8.57h3a12.86 12.86 0 0 0 2.35 6.56 8 8 0 0 1 -5.35-6.56zm10.55 6.55a13.14 13.14 0 0 0 2.38-6.55h2.95a8 8 0 0 1 -5.33 6.55z" fill="#231f20"/></svg>